<?xml version="1.0" encoding="utf-8"?>
<!-- Generator: Adobe Illustrator 25.3.1, SVG Export Plug-In . SVG Version: 6.00 Build 0)  -->
<svg version="1.1" id="Layer_1" xmlns="http://www.w3.org/2000/svg" xmlns:xlink="http://www.w3.org/1999/xlink" x="0px" y="0px"
	 viewBox="0 0 512.3 109.8" style="enable-background:new 0 0 512.3 109.8;" xml:space="preserve">
<style type="text/css">
	.st0{fill:#007AC9;}
	.st1{fill:#31AB46;}
</style>
<g>
	<path class="st0" d="M94.8,34.5c0-0.8,0.2-1.7,0.5-2.4l-36.4-5.8c-0.4-2.1-2.2-3.8-4.5-3.8c-2.4,0-4.4,1.9-4.5,4.3L11.6,38.2
		c-0.8-1.2-2.2-1.9-3.7-1.9c-2.5,0-4.5,2-4.5,4.5s2,4.5,4.5,4.5c2.4,0,4.4-1.9,4.5-4.3l38.2-11.4c0.8,1.1,2.2,1.9,3.7,1.9
		c1.7,0,3.2-1,4-2.4L94.8,35C94.8,34.8,94.8,34.6,94.8,34.5z"/>
	<g>
		<rect x="4.6" y="50.2" class="st0" width="6.7" height="37"/>
		<path class="st0" d="M36.7,49.7c-4,0.1-7.6,1.3-10.2,3.6v-3h-6.6v36.9h6.7V66.8c0-6.2,4.1-10.5,10.1-10.5c3.3,0,5.9,0.9,7.7,2.6
			c1.7,1.7,2.6,4.2,2.6,7.3v20.9h6.7v-21C53.5,56.2,46.9,49.7,36.7,49.7z"/>
		<path class="st0" d="M76.6,65.3l-1.2-0.2c-4.5-0.8-8.3-1.7-8.4-4.4c0-0.9,0.3-1.6,0.9-2.3c1.4-1.4,4.2-2.2,7.6-2.2
			c3.6,0,6.4,0.5,9.3,3.1l1.2,1.1l4.3-4.6l-1.2-1.1c-3.5-3.3-8.1-4.9-13.6-4.9c-5.1-0.1-9.6,1.4-12.2,4.1c-1.8,1.8-2.8,4.3-2.8,7
			c0.1,8.3,8.4,9.7,14.4,10.7c5.8,0.9,9.6,1.8,9.5,4.9c-0.2,4.3-6.2,4.8-8.8,4.8c-4.7,0-8.8-1.9-10.9-5l-1.1-1.6L58.7,79l0.8,1.2
			c3,4.7,9.1,7.5,16.1,7.5c7.3,0,15.2-2.9,15.4-11C91.4,67.8,82.5,66.3,76.6,65.3z"/>
		<rect x="97.5" y="50.2" class="st0" width="6.7" height="37"/>
		<path class="st0" d="M138.9,81.8c4.3-3.2,7.1-8.5,7.1-14.1c0-4.6-1.1-8.3-3.6-11.4l3.4-4l-4.7-4.1l-3.4,4
			c-2.8-1.6-6.1-2.5-9.2-2.5c-10.3,0-17.4,7.4-17.4,18c0,10.4,7.3,17.9,17.4,17.9c1.8,0,11,0.4,11,8.4c0,7.8-8.4,8.4-11,8.4
			c-5.3,0-10.9-2.2-10.9-8.4v-1.7H111V94c0,9,7.1,15.1,17.6,15.1c10.7,0,17.6-5.9,17.6-15.1C146.2,88.7,143.6,84.4,138.9,81.8z
			 M128.5,79c-7.1,0-10.8-5.7-10.8-11.2c0-7.1,4-11.4,10.8-11.4c6.6,0,10.9,4.5,10.9,11.4C139.4,73.8,134.4,79,128.5,79z"/>
		<path class="st0" d="M169.5,49.8c-4.1,0.1-7.7,1.3-10.4,3.7V36.3h-6.5v50.9h6.7V67.1c0-6.2,4.3-10.8,10.3-10.8
			c6.1,0,9.1,3.3,9.1,9.9v20.9h6.6V66.3C185.3,56,179.4,49.8,169.5,49.8z"/>
		<path class="st0" d="M214.5,79.3l-1.6,0.8c-1.6,0.8-3.2,1.2-4.4,1.2c-3.5,0-4.5-1.4-4.5-6.1V56.4h11.4v-6.1H204V40l-6.6,0.7v9.6
			h-7.1v6.1h7.1v18.8c0,8.3,3.7,12.5,11.1,12.5c2.1,0,4.4-0.6,7-1.9l1.4-0.7L214.5,79.3z"/>
	</g>
</g>
<g>
	<path class="st1" d="M247.7,57.3c-3.6-3.2-7.2-3.8-11.2-3.8c-5.6-0.1-11,2-10.9,6.6c0.1,4.8,6.4,5.8,10.9,6.6
		c6.4,1.1,15.3,2.2,14.9,10.6c-0.2,8-8.5,10.1-14.8,10.1s-12.6-2.4-15.8-7.2l2.6-2.3c3,4.3,8.4,6.1,13.2,6.1c4.4,0,11-1.2,11.2-6.9
		c0.1-5.2-5.8-6.2-11.8-7.2c-7-1.2-13.9-2.5-14-9.7c-0.1-7.1,7-10.2,14.3-10.1c5.3,0,9.9,1.5,13.4,4.8L247.7,57.3z"/>
	<path class="st1" d="M255.3,68.8c0-11.5,8.2-18.8,18.3-18.8S292,57.4,292,68.8s-8.2,18.5-18.3,18.5
		C263.5,87.3,255.3,80.3,255.3,68.8z M288.5,68.8c0-9.3-6.6-15.4-14.8-15.4s-14.8,6.1-14.8,15.4s6.6,15,14.8,15
		C281.8,83.8,288.5,78.2,288.5,68.8z"/>
	<path class="st1" d="M301.6,86.8V54.1h-7.4V51h7.4v-3.2c0-7.2,2.9-12.3,10.8-12.3c2.7,0,5.1,1,7.1,2.5l-1.8,2.6
		c-2-1.2-3.4-1.8-5.5-1.8c-4.5,0-7.1,2.8-7.1,9V51H317v3.1h-11.9v32.6H301.6z"/>
	<path class="st1" d="M332.4,39.8v10.9h12.3v3h-12.3v22c0,4.9,1,8.3,6.6,8.3c1.8,0,3.7-0.6,5.5-1.5l1.2,2.9
		c-2.3,1.1-4.5,1.8-6.8,1.8c-7.7,0-10.1-4.5-10.1-11.6v-22h-7.7v-3h7.7V40.2L332.4,39.8z"/>
	<path class="st1" d="M390.2,86.8h-3.9L380.4,71L376,57l-4.5,14.1l-5.8,15.7h-3.9l-12.9-36.1h3.9l10.9,31.9l11-31.9h2.5l11,31.9
		L399,50.7h3.9L390.2,86.8z"/>
	<path class="st1" d="M441.1,50.7c0,12,0,24,0,36.1h-3.6v-7.7c-3.5,5.6-8.9,8.2-14.8,8.2c-10.1,0-18.3-7.6-18.3-18.6
		s8.2-18.5,18.3-18.5c5.8,0,11.8,2.7,14.8,8.3v-7.9L441.1,50.7L441.1,50.7z M408,68.7c0,9.1,6.6,15.1,14.8,15.1
		c20.1,0,20.1-30.2,0-30.2C414.6,53.7,408,59.7,408,68.7z"/>
	<path class="st1" d="M451.8,50.7l0.1,6.4c2.3-4.9,7.4-6.8,12-6.8c2.7-0.1,5.3,0.7,7.7,2.1l-1.6,2.9c-1.9-1.2-4-1.7-6.1-1.7
		c-6.7,0.1-11.9,5.5-11.9,12.1v21h-3.6V50.7H451.8z"/>
	<path class="st1" d="M472.7,68.7c0-10.8,8.2-18.6,18.3-18.6s19.2,6.2,17.8,20.3h-32.5c0.7,8.5,7.2,13.4,14.7,13.4
		c4.8,0,10.3-1.9,13-5.5l2.5,2c-3.5,4.6-9.8,6.9-15.5,6.9C480.8,87.3,472.7,80.2,472.7,68.7z M505.6,67.3
		c-0.1-8.9-5.9-13.9-14.6-13.9c-7.5,0-13.9,5-14.7,13.9H505.6z"/>
	<path class="st1" d="M147.2,0.7c-2.5,0-4.5,2-4.5,4.5c0,0.3,0.1,0.7,0.1,1l-39.2,24.6c-0.8-0.6-1.8-1-2.8-1c-2.5,0-4.5,2-4.5,4.5
		s2,4.5,4.5,4.5s4.5-2,4.5-4.5c0-0.3-0.1-0.7-0.1-1l39.2-24.6c0.8,0.6,1.8,1,2.8,1c2.5,0,4.5-2,4.5-4.5S149.8,0.7,147.2,0.7z"/>
</g>
</svg>
